<svg width="15" height="9" viewBox="0 0 15 9" fill="none" xmlns="http://www.w3.org/2000/svg">
<path d="M0.940816 4.76933C0.830979 4.66081 0.736131 4.56339 0.657356 4.4804C0.740081 4.38188 0.841792 4.26391 0.961107 4.13128C1.32871 3.72265 1.86036 3.17823 2.51578 2.63495C3.84082 1.53664 5.603 0.5 7.5 0.5C9.397 0.5 11.1592 1.53664 12.4842 2.63495C13.1396 3.17823 13.6713 3.72265 14.0389 4.13128C14.1582 4.26391 14.2599 4.38188 14.3426 4.4804C14.2639 4.56339 14.169 4.66081 14.0592 4.76933C13.6925 5.13163 13.1616 5.61491 12.5067 6.09746C11.1859 7.07063 9.41595 8 7.5 8C5.58405 8 3.8141 7.07063 2.49329 6.09746C1.83835 5.61491 1.30748 5.13163 0.940816 4.76933Z" fill="white" stroke="#81859C"/>
<circle cx="7.5" cy="3.5" r="3.5" fill="#81859C"/>
<circle cx="6.5" cy="2.5" r="1.5" fill="white"/>
</svg>
