<svg width="32" height="27" viewBox="0 0 32 27" fill="none" xmlns="http://www.w3.org/2000/svg">
<path d="M20.3536 13.3536C20.5488 13.1583 20.5488 12.8417 20.3536 12.6464L17.1716 9.46447C16.9763 9.2692 16.6597 9.2692 16.4645 9.46447C16.2692 9.65973 16.2692 9.97631 16.4645 10.1716L19.2929 13L16.4645 15.8284C16.2692 16.0237 16.2692 16.3403 16.4645 16.5355C16.6597 16.7308 16.9763 16.7308 17.1716 16.5355L20.3536 13.3536ZM0 13.5H20V12.5H0V13.5Z" fill="#181818"/>
<path d="M9.56684 9.1108C10.4924 7.14681 12.0627 5.55909 14.0164 4.612C15.97 3.66491 18.1892 3.41559 20.3043 3.90555C22.4194 4.39551 24.3029 5.59519 25.6412 7.30485C26.9794 9.0145 27.6917 11.131 27.6594 13.3019C27.6271 15.4728 26.8521 17.5671 25.4636 19.2362C24.0751 20.9052 22.1567 22.0483 20.0279 22.4751C17.8991 22.9019 15.6884 22.5867 13.7638 21.5819C11.8392 20.577 10.3168 18.9433 9.45012 16.9526" stroke="#181818"/>
</svg>
